<svg width="24" height="23" viewBox="0 0 24 23" fill="none" xmlns="http://www.w3.org/2000/svg">
<path d="M20.84 4.41796C20.3292 3.92825 19.7228 3.53978 19.0554 3.27475C18.3879 3.00971 17.6725 2.87329 16.95 2.87329C16.2275 2.87329 15.5121 3.00971 14.8446 3.27475C14.1772 3.53978 13.5708 3.92825 13.06 4.41796L12 5.43379L10.94 4.41796C9.9083 3.42925 8.50903 2.8738 7.05 2.8738C5.59096 2.8738 4.19169 3.42925 3.16 4.41796C2.1283 5.40666 1.54871 6.74763 1.54871 8.14587C1.54871 9.54411 2.1283 10.8851 3.16 11.8738L12 20.3455L20.84 11.8738C21.351 11.3843 21.7563 10.8032 22.0329 10.1635C22.3095 9.52386 22.4518 8.83826 22.4518 8.14587C22.4518 7.45349 22.3095 6.76789 22.0329 6.12824C21.7563 5.48859 21.351 4.90743 20.84 4.41796Z" stroke="#C4FF0E" stroke-width="4" stroke-linecap="round" stroke-linejoin="round"/>
</svg>
