<svg width="24" height="23" viewBox="0 0 24 23" fill="none" xmlns="http://www.w3.org/2000/svg">
<path d="M20.8401 4.41796C20.3294 3.92825 19.7229 3.53978 19.0555 3.27475C18.388 3.00971 17.6726 2.87329 16.9501 2.87329C16.2276 2.87329 15.5122 3.00971 14.8448 3.27475C14.1773 3.53978 13.5709 3.92825 13.0601 4.41796L12.0001 5.43379L10.9401 4.41796C9.90843 3.42925 8.50915 2.8738 7.05012 2.8738C5.59109 2.8738 4.19181 3.42925 3.16012 4.41796C2.12843 5.40666 1.54883 6.74763 1.54883 8.14587C1.54883 9.54411 2.12843 10.8851 3.16012 11.8738L12.0001 20.3455L20.8401 11.8738C21.3511 11.3843 21.7565 10.8032 22.033 10.1635C22.3096 9.52386 22.4519 8.83826 22.4519 8.14587C22.4519 7.45349 22.3096 6.76789 22.033 6.12824C21.7565 5.48859 21.3511 4.90743 20.8401 4.41796Z" fill="#C4FF0E" stroke="#C4FF0E" stroke-width="4" stroke-linecap="round" stroke-linejoin="round"/>
</svg>
